<!DOCTYPE svg PUBLIC "-//W3C//DTD SVG 1.1//EN" "http://www.w3.org/Graphics/SVG/1.1/DTD/svg11.dtd">
<!-- Uploaded to: SVG Repo, www.svgrepo.com, Transformed by: SVG Repo Mixer Tools -->
<svg height="800px" width="800px" version="1.1" id="Capa_1" xmlns="http://www.w3.org/2000/svg" xmlns:xlink="http://www.w3.org/1999/xlink" viewBox="0 0 27.154 27.154" xml:space="preserve" fill="#000000">
<g id="SVGRepo_bgCarrier" stroke-width="0"/>
<g id="SVGRepo_tracerCarrier" stroke-linecap="round" stroke-linejoin="round"/>
<g id="SVGRepo_iconCarrier"> <g> <g> <path style="fill:#030104;" d="M13.577,0C6.078,0,0.001,6.08,0.001,13.577c0,7.5,6.077,13.577,13.576,13.577 c7.496,0,13.576-6.077,13.576-13.577C27.153,6.08,21.073,0,13.577,0z M13.525,24.591c-6.107,0-11.062-4.952-11.062-11.062 S7.418,2.466,13.525,2.466s11.062,4.952,11.062,11.062S19.633,24.591,13.525,24.591z"/> <path style="fill:#030104;" d="M13.525,4.326c-5.058,0-9.152,4.098-9.152,9.152c0,5.052,4.095,9.149,9.152,9.149 s9.152-4.098,9.152-9.149C22.678,8.424,18.583,4.326,13.525,4.326z M15.462,18.699c-0.379,0-0.706-0.21-0.878-0.521l-0.009,0.006 l-1.343-3.369l-4.609-3.236l0.009-0.007c-0.221-0.187-0.36-0.461-0.36-0.768c0-0.555,0.45-1.006,1.006-1.006 c0.275,0,0.521,0.108,0.702,0.283l3.594,2.732l0.783-4.29c0.01-0.548,0.457-0.988,1.008-0.988c0.554,0,1.004,0.45,1.004,1.005 c0,0.156-1.17,5.461-1.17,5.461s1.372,3.445,1.372,3.59C16.57,18.146,16.016,18.699,15.462,18.699z"/> </g> </g> </g>
</svg>